<svg width="80" height="80" viewBox="0 0 80 80" fill="none" xmlns="http://www.w3.org/2000/svg">
<circle cx="40" cy="40" r="38.5" fill="#252525" stroke="url(#paint0_linear_226_216)" stroke-width="3"/>
<g filter="url(#filter0_ddii_226_216)">
<path d="M32.1052 19.0303L31.6914 18.5529C34.8953 18.171 37.5688 17.2162 39.7118 15.6885C40.7091 19.1682 41.9397 22.6268 43.4038 26.0641C44.889 29.4802 46.5652 32.8432 48.4324 36.1533C50.2996 39.4633 52.2729 42.7202 54.3523 45.9242C56.4316 49.1069 58.6065 52.1835 60.8768 55.154C61.1314 50.8892 61.2587 46.4546 61.2587 41.8503V40.8C61.2375 35.6652 61.1738 31.3686 61.0678 27.9101C60.9617 24.4515 60.7813 21.7356 60.5267 19.7623L60.3676 18.5529C60.9617 18.4468 61.5027 18.2877 61.9907 18.0755C62.4788 17.8633 62.9243 17.6193 63.3275 17.3435C63.7306 17.0676 64.3353 16.516 65.1416 15.6885C64.8658 18.7439 64.6642 22.0221 64.5369 25.523C64.4096 29.024 64.3459 32.8432 64.3459 36.9808C64.3459 42.0731 64.399 46.5076 64.5051 50.2845C64.6112 54.04 64.7915 57.2015 65.0461 59.7689L65.1734 60.851C64.3035 60.9571 63.4654 61.1163 62.6591 61.3284C61.8528 61.5406 61.0996 61.7846 60.3994 62.0605C59.6992 62.3363 59.0733 62.6227 58.5216 62.9198C57.9699 63.2168 57.5137 63.5033 57.153 63.7791C56.665 61.1905 52.6548 53.2762 45.1224 40.0362L38.9161 29.4059C38.8525 31.6338 38.8207 34.0421 38.8207 36.6307C38.8207 41.8927 38.8737 46.444 38.9798 50.2845C39.0859 54.1037 39.2662 57.297 39.5209 59.8644L39.6482 60.9465C38.1205 61.2436 36.5291 62.1878 34.8741 63.7791C35.447 57.4561 35.7334 50.1253 35.7334 41.7866V40.8955C35.7334 37.3096 35.7016 34.0951 35.638 31.2519C35.5743 28.3875 35.4682 25.8307 35.3197 23.5816C34.6407 22.4995 34.036 21.5765 33.5055 20.8126C32.9751 20.0488 32.5083 19.4547 32.1052 19.0303Z" fill="white"/>
<path d="M32.1052 19.0303L31.6914 18.5529C34.8953 18.171 37.5688 17.2162 39.7118 15.6885C40.7091 19.1682 41.9397 22.6268 43.4038 26.0641C44.889 29.4802 46.5652 32.8432 48.4324 36.1533C50.2996 39.4633 52.2729 42.7202 54.3523 45.9242C56.4316 49.1069 58.6065 52.1835 60.8768 55.154C61.1314 50.8892 61.2587 46.4546 61.2587 41.8503V40.8C61.2375 35.6652 61.1738 31.3686 61.0678 27.9101C60.9617 24.4515 60.7813 21.7356 60.5267 19.7623L60.3676 18.5529C60.9617 18.4468 61.5027 18.2877 61.9907 18.0755C62.4788 17.8633 62.9243 17.6193 63.3275 17.3435C63.7306 17.0676 64.3353 16.516 65.1416 15.6885C64.8658 18.7439 64.6642 22.0221 64.5369 25.523C64.4096 29.024 64.3459 32.8432 64.3459 36.9808C64.3459 42.0731 64.399 46.5076 64.5051 50.2845C64.6112 54.04 64.7915 57.2015 65.0461 59.7689L65.1734 60.851C64.3035 60.9571 63.4654 61.1163 62.6591 61.3284C61.8528 61.5406 61.0996 61.7846 60.3994 62.0605C59.6992 62.3363 59.0733 62.6227 58.5216 62.9198C57.9699 63.2168 57.5137 63.5033 57.153 63.7791C56.665 61.1905 52.6548 53.2762 45.1224 40.0362L38.9161 29.4059C38.8525 31.6338 38.8207 34.0421 38.8207 36.6307C38.8207 41.8927 38.8737 46.444 38.9798 50.2845C39.0859 54.1037 39.2662 57.297 39.5209 59.8644L39.6482 60.9465C38.1205 61.2436 36.5291 62.1878 34.8741 63.7791C35.447 57.4561 35.7334 50.1253 35.7334 41.7866V40.8955C35.7334 37.3096 35.7016 34.0951 35.638 31.2519C35.5743 28.3875 35.4682 25.8307 35.3197 23.5816C34.6407 22.4995 34.036 21.5765 33.5055 20.8126C32.9751 20.0488 32.5083 19.4547 32.1052 19.0303Z" fill="url(#paint1_linear_226_216)"/>
</g>
<g filter="url(#filter1_ddii_226_216)">
<path d="M29.3591 15.6885C29.8895 15.837 30.5791 16.0916 31.4278 16.4523C32.2978 16.813 33.2526 17.2692 34.2923 17.8209C35.3532 18.3726 36.4671 19.0728 37.6341 19.9215C38.8011 20.749 39.9787 21.7356 41.1669 22.8814C41.5064 23.2209 41.8247 23.571 42.1217 23.9317C42.44 24.2712 42.7371 24.6213 43.0129 24.982L36.6793 28.101C35.7033 26.8704 34.7166 25.8307 33.7194 24.982C32.7221 24.112 31.6506 23.3906 30.5049 22.8177C29.3591 22.2448 28.1497 21.7568 26.8766 21.3537C25.6035 20.9293 24.2031 20.5792 22.6754 20.3034C20.3839 21.916 19.2381 24.3879 19.2381 27.7191C19.2381 30.0319 20.49 31.6338 22.9937 32.525C35.0455 36.8322 42.1217 40.0255 44.2223 42.1049C44.9649 42.8475 45.5484 43.8023 45.9728 44.9693C46.3972 46.1363 46.6093 47.4837 46.6093 49.0114C46.6093 50.1571 46.3653 51.2605 45.8773 52.3214C45.4105 53.3823 44.6361 54.4856 43.5539 55.6314C41.6019 57.6471 40.2121 58.8565 39.3846 59.2597L30.8868 63.9064C28.6801 63.6518 25.4125 62.3575 21.0841 60.0235C20.3414 59.6204 19.4503 59.0157 18.4106 58.2094C17.3709 57.4031 16.1827 56.3634 14.846 55.0903C14.4853 54.7721 14.1564 54.4326 13.8593 54.0719C13.5623 53.7112 13.2758 53.3505 13 52.9897L19.3336 49.8707C20.0338 51.0165 22.3147 52.7033 26.1764 54.9312C29.4864 56.8196 33.7618 58.2412 39.0027 59.196C41.3154 57.5622 42.4718 55.0797 42.4718 51.7485C42.4718 48.9477 40.5728 46.7304 36.7748 45.0966C32.0432 43.1022 28.4361 41.5745 25.9536 40.5136C23.4711 39.4527 22.0813 38.8692 21.7843 38.7631C17.4558 37.0868 15.2915 34.2649 15.2915 30.2971C15.2915 28.0268 16.2464 25.8837 18.156 23.868C20.108 21.8523 21.4872 20.6429 22.2935 20.2397L29.3591 15.6885Z" fill="url(#paint2_linear_226_216)"/>
</g>
<mask id="mask0_226_216" style="mask-type:alpha" maskUnits="userSpaceOnUse" x="29" y="32" width="17" height="21">
<rect x="29.8223" y="32.5103" width="15.8873" height="19.6255" fill="#D9D9D9"/>
</mask>
<g mask="url(#mask0_226_216)">
<g filter="url(#filter2_ddii_226_216)">
<path d="M32.1052 19.0303L31.6914 18.5529C34.8953 18.171 37.5688 17.2162 39.7118 15.6885C40.7091 19.1682 41.9397 22.6268 43.4038 26.0641C44.889 29.4802 46.5652 32.8432 48.4324 36.1533C50.2996 39.4633 52.2729 42.7202 54.3523 45.9242C56.4316 49.1069 58.6065 52.1835 60.8768 55.154C61.1314 50.8892 61.2587 46.4546 61.2587 41.8503V40.8C61.2375 35.6652 61.1738 31.3686 61.0678 27.9101C60.9617 24.4515 60.7813 21.7356 60.5267 19.7623L60.3676 18.5529C60.9617 18.4468 61.5027 18.2877 61.9907 18.0755C62.4788 17.8633 62.9243 17.6193 63.3275 17.3435C63.7306 17.0676 64.3353 16.516 65.1416 15.6885C64.8658 18.7439 64.6642 22.0221 64.5369 25.523C64.4096 29.024 64.3459 32.8432 64.3459 36.9808C64.3459 42.0731 64.399 46.5076 64.5051 50.2845C64.6112 54.04 64.7915 57.2015 65.0461 59.7689L65.1734 60.851C64.3035 60.9571 63.4654 61.1163 62.6591 61.3284C61.8528 61.5406 61.0996 61.7846 60.3994 62.0605C59.6992 62.3363 59.0733 62.6227 58.5216 62.9198C57.9699 63.2168 57.5137 63.5033 57.153 63.7791C56.665 61.1905 52.6548 53.2762 45.1224 40.0362L38.9161 29.4059C38.8525 31.6338 38.8207 34.0421 38.8207 36.6307C38.8207 41.8927 38.8737 46.444 38.9798 50.2845C39.0859 54.1037 39.2662 57.297 39.5209 59.8644L39.6482 60.9465C38.1205 61.2436 36.5291 62.1878 34.8741 63.7791C35.447 57.4561 35.7334 50.1253 35.7334 41.7866V40.8955C35.7334 37.3096 35.7016 34.0951 35.638 31.2519C35.5743 28.3875 35.4682 25.8307 35.3197 23.5816C34.6407 22.4995 34.036 21.5765 33.5055 20.8126C32.9751 20.0488 32.5083 19.4547 32.1052 19.0303Z" fill="white"/>
<path d="M32.1052 19.0303L31.6914 18.5529C34.8953 18.171 37.5688 17.2162 39.7118 15.6885C40.7091 19.1682 41.9397 22.6268 43.4038 26.0641C44.889 29.4802 46.5652 32.8432 48.4324 36.1533C50.2996 39.4633 52.2729 42.7202 54.3523 45.9242C56.4316 49.1069 58.6065 52.1835 60.8768 55.154C61.1314 50.8892 61.2587 46.4546 61.2587 41.8503V40.8C61.2375 35.6652 61.1738 31.3686 61.0678 27.9101C60.9617 24.4515 60.7813 21.7356 60.5267 19.7623L60.3676 18.5529C60.9617 18.4468 61.5027 18.2877 61.9907 18.0755C62.4788 17.8633 62.9243 17.6193 63.3275 17.3435C63.7306 17.0676 64.3353 16.516 65.1416 15.6885C64.8658 18.7439 64.6642 22.0221 64.5369 25.523C64.4096 29.024 64.3459 32.8432 64.3459 36.9808C64.3459 42.0731 64.399 46.5076 64.5051 50.2845C64.6112 54.04 64.7915 57.2015 65.0461 59.7689L65.1734 60.851C64.3035 60.9571 63.4654 61.1163 62.6591 61.3284C61.8528 61.5406 61.0996 61.7846 60.3994 62.0605C59.6992 62.3363 59.0733 62.6227 58.5216 62.9198C57.9699 63.2168 57.5137 63.5033 57.153 63.7791C56.665 61.1905 52.6548 53.2762 45.1224 40.0362L38.9161 29.4059C38.8525 31.6338 38.8207 34.0421 38.8207 36.6307C38.8207 41.8927 38.8737 46.444 38.9798 50.2845C39.0859 54.1037 39.2662 57.297 39.5209 59.8644L39.6482 60.9465C38.1205 61.2436 36.5291 62.1878 34.8741 63.7791C35.447 57.4561 35.7334 50.1253 35.7334 41.7866V40.8955C35.7334 37.3096 35.7016 34.0951 35.638 31.2519C35.5743 28.3875 35.4682 25.8307 35.3197 23.5816C34.6407 22.4995 34.036 21.5765 33.5055 20.8126C32.9751 20.0488 32.5083 19.4547 32.1052 19.0303Z" fill="url(#paint3_linear_226_216)"/>
</g>
</g>
<defs>
<filter id="filter0_ddii_226_216" x="27.6914" y="12.6885" width="41.4824" height="56.0908" filterUnits="userSpaceOnUse" color-interpolation-filters="sRGB">
<feFlood flood-opacity="0" result="BackgroundImageFix"/>
<feColorMatrix in="SourceAlpha" type="matrix" values="0 0 0 0 0 0 0 0 0 0 0 0 0 0 0 0 0 0 127 0" result="hardAlpha"/>
<feOffset dy="1"/>
<feGaussianBlur stdDeviation="2"/>
<feComposite in2="hardAlpha" operator="out"/>
<feColorMatrix type="matrix" values="0 0 0 0 0 0 0 0 0 0 0 0 0 0 0 0 0 0 0.33 0"/>
<feBlend mode="normal" in2="BackgroundImageFix" result="effect1_dropShadow_226_216"/>
<feColorMatrix in="SourceAlpha" type="matrix" values="0 0 0 0 0 0 0 0 0 0 0 0 0 0 0 0 0 0 127 0" result="hardAlpha"/>
<feOffset dy="-0.2"/>
<feGaussianBlur stdDeviation="1"/>
<feComposite in2="hardAlpha" operator="out"/>
<feColorMatrix type="matrix" values="0 0 0 0 1 0 0 0 0 1 0 0 0 0 1 0 0 0 0.17 0"/>
<feBlend mode="normal" in2="effect1_dropShadow_226_216" result="effect2_dropShadow_226_216"/>
<feBlend mode="normal" in="SourceGraphic" in2="effect2_dropShadow_226_216" result="shape"/>
<feColorMatrix in="SourceAlpha" type="matrix" values="0 0 0 0 0 0 0 0 0 0 0 0 0 0 0 0 0 0 127 0" result="hardAlpha"/>
<feOffset dy="1"/>
<feGaussianBlur stdDeviation="0.75"/>
<feComposite in2="hardAlpha" operator="arithmetic" k2="-1" k3="1"/>
<feColorMatrix type="matrix" values="0 0 0 0 0 0 0 0 0 0 0 0 0 0 0 0 0 0 0.38 0"/>
<feBlend mode="normal" in2="shape" result="effect3_innerShadow_226_216"/>
<feColorMatrix in="SourceAlpha" type="matrix" values="0 0 0 0 0 0 0 0 0 0 0 0 0 0 0 0 0 0 127 0" result="hardAlpha"/>
<feOffset dy="-1"/>
<feGaussianBlur stdDeviation="0.75"/>
<feComposite in2="hardAlpha" operator="arithmetic" k2="-1" k3="1"/>
<feColorMatrix type="matrix" values="0 0 0 0 1 0 0 0 0 1 0 0 0 0 1 0 0 0 0.27 0"/>
<feBlend mode="normal" in2="effect3_innerShadow_226_216" result="effect4_innerShadow_226_216"/>
</filter>
<filter id="filter1_ddii_226_216" x="9" y="12.6885" width="41.6094" height="56.2178" filterUnits="userSpaceOnUse" color-interpolation-filters="sRGB">
<feFlood flood-opacity="0" result="BackgroundImageFix"/>
<feColorMatrix in="SourceAlpha" type="matrix" values="0 0 0 0 0 0 0 0 0 0 0 0 0 0 0 0 0 0 127 0" result="hardAlpha"/>
<feOffset dy="1"/>
<feGaussianBlur stdDeviation="2"/>
<feComposite in2="hardAlpha" operator="out"/>
<feColorMatrix type="matrix" values="0 0 0 0 0 0 0 0 0 0 0 0 0 0 0 0 0 0 0.33 0"/>
<feBlend mode="normal" in2="BackgroundImageFix" result="effect1_dropShadow_226_216"/>
<feColorMatrix in="SourceAlpha" type="matrix" values="0 0 0 0 0 0 0 0 0 0 0 0 0 0 0 0 0 0 127 0" result="hardAlpha"/>
<feOffset dy="-0.2"/>
<feGaussianBlur stdDeviation="1"/>
<feComposite in2="hardAlpha" operator="out"/>
<feColorMatrix type="matrix" values="0 0 0 0 1 0 0 0 0 1 0 0 0 0 1 0 0 0 0.17 0"/>
<feBlend mode="normal" in2="effect1_dropShadow_226_216" result="effect2_dropShadow_226_216"/>
<feBlend mode="normal" in="SourceGraphic" in2="effect2_dropShadow_226_216" result="shape"/>
<feColorMatrix in="SourceAlpha" type="matrix" values="0 0 0 0 0 0 0 0 0 0 0 0 0 0 0 0 0 0 127 0" result="hardAlpha"/>
<feOffset dy="1"/>
<feGaussianBlur stdDeviation="0.75"/>
<feComposite in2="hardAlpha" operator="arithmetic" k2="-1" k3="1"/>
<feColorMatrix type="matrix" values="0 0 0 0 0 0 0 0 0 0 0 0 0 0 0 0 0 0 0.38 0"/>
<feBlend mode="normal" in2="shape" result="effect3_innerShadow_226_216"/>
<feColorMatrix in="SourceAlpha" type="matrix" values="0 0 0 0 0 0 0 0 0 0 0 0 0 0 0 0 0 0 127 0" result="hardAlpha"/>
<feOffset dy="-1"/>
<feGaussianBlur stdDeviation="0.75"/>
<feComposite in2="hardAlpha" operator="arithmetic" k2="-1" k3="1"/>
<feColorMatrix type="matrix" values="0 0 0 0 1 0 0 0 0 1 0 0 0 0 1 0 0 0 0.27 0"/>
<feBlend mode="normal" in2="effect3_innerShadow_226_216" result="effect4_innerShadow_226_216"/>
</filter>
<filter id="filter2_ddii_226_216" x="27.6914" y="12.6885" width="41.4824" height="56.0908" filterUnits="userSpaceOnUse" color-interpolation-filters="sRGB">
<feFlood flood-opacity="0" result="BackgroundImageFix"/>
<feColorMatrix in="SourceAlpha" type="matrix" values="0 0 0 0 0 0 0 0 0 0 0 0 0 0 0 0 0 0 127 0" result="hardAlpha"/>
<feOffset dy="1"/>
<feGaussianBlur stdDeviation="2"/>
<feComposite in2="hardAlpha" operator="out"/>
<feColorMatrix type="matrix" values="0 0 0 0 0 0 0 0 0 0 0 0 0 0 0 0 0 0 0.33 0"/>
<feBlend mode="normal" in2="BackgroundImageFix" result="effect1_dropShadow_226_216"/>
<feColorMatrix in="SourceAlpha" type="matrix" values="0 0 0 0 0 0 0 0 0 0 0 0 0 0 0 0 0 0 127 0" result="hardAlpha"/>
<feOffset dy="-0.2"/>
<feGaussianBlur stdDeviation="1"/>
<feComposite in2="hardAlpha" operator="out"/>
<feColorMatrix type="matrix" values="0 0 0 0 1 0 0 0 0 1 0 0 0 0 1 0 0 0 0.17 0"/>
<feBlend mode="normal" in2="effect1_dropShadow_226_216" result="effect2_dropShadow_226_216"/>
<feBlend mode="normal" in="SourceGraphic" in2="effect2_dropShadow_226_216" result="shape"/>
<feColorMatrix in="SourceAlpha" type="matrix" values="0 0 0 0 0 0 0 0 0 0 0 0 0 0 0 0 0 0 127 0" result="hardAlpha"/>
<feOffset dy="1"/>
<feGaussianBlur stdDeviation="0.75"/>
<feComposite in2="hardAlpha" operator="arithmetic" k2="-1" k3="1"/>
<feColorMatrix type="matrix" values="0 0 0 0 0 0 0 0 0 0 0 0 0 0 0 0 0 0 0.38 0"/>
<feBlend mode="normal" in2="shape" result="effect3_innerShadow_226_216"/>
<feColorMatrix in="SourceAlpha" type="matrix" values="0 0 0 0 0 0 0 0 0 0 0 0 0 0 0 0 0 0 127 0" result="hardAlpha"/>
<feOffset dy="-1"/>
<feGaussianBlur stdDeviation="0.75"/>
<feComposite in2="hardAlpha" operator="arithmetic" k2="-1" k3="1"/>
<feColorMatrix type="matrix" values="0 0 0 0 1 0 0 0 0 1 0 0 0 0 1 0 0 0 0.27 0"/>
<feBlend mode="normal" in2="effect3_innerShadow_226_216" result="effect4_innerShadow_226_216"/>
</filter>
<linearGradient id="paint0_linear_226_216" x1="40" y1="0" x2="40" y2="80" gradientUnits="userSpaceOnUse">
<stop stop-color="#AA771C"/>
<stop offset="0.296875" stop-color="#FBF5B7"/>
<stop offset="0.520833" stop-color="#B38728"/>
<stop offset="0.786458" stop-color="#FCF6BA"/>
<stop offset="1" stop-color="#BF953F"/>
</linearGradient>
<linearGradient id="paint1_linear_226_216" x1="49.7055" y1="-39.9006" x2="49.7055" y2="81.093" gradientUnits="userSpaceOnUse">
<stop stop-color="#BF953F"/>
<stop offset="0.234375" stop-color="#FCF6BA"/>
<stop offset="0.515625" stop-color="#B38728"/>
<stop offset="0.78125" stop-color="#FBF5B7"/>
<stop offset="1" stop-color="#AA771C"/>
</linearGradient>
<linearGradient id="paint2_linear_226_216" x1="30.0593" y1="-39.7733" x2="30.0593" y2="81.2203" gradientUnits="userSpaceOnUse">
<stop stop-color="#BF953F"/>
<stop offset="0.234375" stop-color="#FCF6BA"/>
<stop offset="0.515625" stop-color="#B38728"/>
<stop offset="0.78125" stop-color="#FBF5B7"/>
<stop offset="1" stop-color="#AA771C"/>
</linearGradient>
<linearGradient id="paint3_linear_226_216" x1="49.7055" y1="-39.9006" x2="49.7055" y2="81.093" gradientUnits="userSpaceOnUse">
<stop stop-color="#BF953F"/>
<stop offset="0.234375" stop-color="#FCF6BA"/>
<stop offset="0.515625" stop-color="#B38728"/>
<stop offset="0.78125" stop-color="#FBF5B7"/>
<stop offset="1" stop-color="#AA771C"/>
</linearGradient>
</defs>
</svg>
